<?xml version="1.0" standalone="no"?><svg xmlns="http://www.w3.org/2000/svg" viewBox="0 0 1440 320"><path fill="#E7E7E0" fill-opacity="1" d="M0,224L34.3,202.7C68.6,181,137,139,206,112C274.3,85,343,75,411,69.3C480,64,549,64,617,69.3C685.7,75,754,85,823,106.7C891.4,128,960,160,1029,165.3C1097.1,171,1166,149,1234,154.7C1302.9,160,1371,192,1406,208L1440,224L1440,0L1405.7,0C1371.4,0,1303,0,1234,0C1165.7,0,1097,0,1029,0C960,0,891,0,823,0C754.3,0,686,0,617,0C548.6,0,480,0,411,0C342.9,0,274,0,206,0C137.1,0,69,0,34,0L0,0Z"></path></svg>